<?xml version="1.0" encoding="utf-8"?>
<!-- Generator: Adobe Illustrator 19.1.0, SVG Export Plug-In . SVG Version: 6.00 Build 0)  -->
<svg version="1.1" id="Layer_1" xmlns="http://www.w3.org/2000/svg" xmlns:xlink="http://www.w3.org/1999/xlink" x="0px" y="0px"
	 viewBox="0 0 26.5 22" style="enable-background:new 0 0 26.5 22;" xml:space="preserve">
<style type="text/css">
	.st0{fill:#131111;}
	.st1{fill:#231F20;}
</style>
<path class="st0" d="M25.7,0H0.8C0.4,0,0,0.4,0,0.8v20.4C0,21.6,0.4,22,0.8,22h24.9c0.4,0,0.8-0.4,0.8-0.8V0.8
	C26.5,0.4,26.1,0,25.7,0z M21.5,1.1c0.6,0,1.1,0.5,1.1,1.1s-0.5,1.1-1.1,1.1s-1.1-0.5-1.1-1.1S20.9,1.1,21.5,1.1z M25.6,20.5
	c0,0.3-0.2,0.5-0.5,0.5L1.4,21.1c-0.3,0-0.5-0.2-0.5-0.5V4.4h24.7V20.5z M24.5,3.3c-0.6,0-1.1-0.5-1.1-1.1s0.5-1.1,1.1-1.1
	s1.1,0.5,1.1,1.1S25.1,3.3,24.5,3.3z"/>
<path class="st1" d="M19.8,12.5l-0.1-0.2c-0.2-0.6-0.6-1.5-0.6-2c0-0.5,0.1-1,0.3-1.6c0.1-0.4,0.3-0.7,0.3-0.7l0.7-1.4h-9.6
	l-0.3,0.6c-0.2,0.4-0.6,1.4-0.7,2.5l1.3-0.3c0.1-0.7,0.3-1.2,0.5-1.6h6.9l0,0.1l0,0c0,0.1-0.1,0.2-0.1,0.4c-0.2,0.5-0.4,1.2-0.4,1.9
	c0,0.7,0.3,1.6,0.7,2.5l0.1,0.1c0.3,0.7,0.6,1.5,0.6,2.1c0,1-0.4,2-0.6,2.5h-6.9c0.1-0.1,0.1-0.3,0.2-0.5c0-0.1,0.1-0.3,0.1-0.4
	L10.7,17c-0.1,0.2-0.2,0.4-0.2,0.4l-0.7,1.4h9.6l0.3-0.5c0.2-0.4,0.8-1.7,0.8-3.1C20.5,14.3,20.1,13.4,19.8,12.5z"/>
<g>
	<path class="st1" d="M13.4,15.2l2.6-3c0.1-0.2,0.1-0.3-0.1-0.4l-3.8-1.3c-0.1,0-0.2,0-0.2,0l0,0c0,0,0,0,0,0l-4.4,1.2l0.3,1l3.9-1
		c0.2,0,0.3,0.1,0.4,0.2l0.1,0.2c0,0.2-0.1,0.3-0.2,0.4l-3.9,1l0.3,1l4-1c0.1,0,0.3,0,0.3,0.2l0.1,0.3c0,0.1,0,0.3-0.2,0.3l-4,1
		l0.3,1.1l4.2-1.1C13.1,15.3,13.3,15.3,13.4,15.2z M13.2,14.4l-0.8-3.1c0-0.2,0.2-0.4,0.5-0.3l2,0.7c0,0,0,0.1,0,0.1l0.2,0.9
		c0,0,0,0,0,0l-1.4,1.6C13.6,14.6,13.3,14.6,13.2,14.4z"/>
	<path class="st1" d="M8.5,16.6L8,16.7c-0.9,0.2-1.9-0.3-2.2-1.3L5.4,14c-0.2-0.9,0.3-1.9,1.3-2.2l0.5-0.1L8.5,16.6z"/>
</g>
</svg>
