<?xml version="1.0" encoding="utf-8"?>
<!-- Generator: Adobe Illustrator 19.1.0, SVG Export Plug-In . SVG Version: 6.00 Build 0)  -->
<svg version="1.1" id="Layer_1" xmlns="http://www.w3.org/2000/svg" xmlns:xlink="http://www.w3.org/1999/xlink" x="0px" y="0px"
	 viewBox="0 0 26.5 22" style="enable-background:new 0 0 26.5 22;" xml:space="preserve">
<style type="text/css">
	.st0{fill:#131111;}
	.st1{fill:#241F20;}
</style>
<path class="st0" d="M25.7,0H0.8C0.4,0,0,0.4,0,0.8v20.4C0,21.6,0.4,22,0.8,22h24.9c0.4,0,0.8-0.4,0.8-0.8V0.8
	C26.5,0.4,26.1,0,25.7,0z M21.5,1.1c0.6,0,1.1,0.5,1.1,1.1s-0.5,1.1-1.1,1.1s-1.1-0.5-1.1-1.1S20.9,1.1,21.5,1.1z M25.6,20.5
	c0,0.3-0.2,0.5-0.5,0.5L1.4,21.1c-0.3,0-0.5-0.2-0.5-0.5V4.4h24.7V20.5z M24.5,3.3c-0.6,0-1.1-0.5-1.1-1.1s0.5-1.1,1.1-1.1
	s1.1,0.5,1.1,1.1S25.1,3.3,24.5,3.3z"/>
<path class="st1" d="M20.7,9.1L20.7,9.1c-0.3,0-0.3-0.2-0.3-0.3V7.1c0-0.2-0.1-0.3-0.3-0.3h-4.8c-1.2,0-1.6,0.4-1.7,0.6l0,0l0,0
	l-0.1,0.1h0c-0.1,0.2-0.2,0.1-0.3,0l-0.2-0.2l-0.1-0.1c-0.1-0.2-0.5-0.5-1.3-0.5H6.5c-0.2,0-0.3,0.1-0.3,0.3v1.6
	C6.2,9,6,9.1,5.9,9.1H5.8c-0.1,0-0.3,0.1-0.3,0.4v7.8c0,0.2,0.2,0.3,0.3,0.3h4.6c1.5,0,2.1,0.6,2.3,0.8l0.1,0.1h0c0,0,0.3,0.3,0.6,0
	l0,0l0.1-0.1v0l0,0l0.1-0.1c0,0,0,0,0.1-0.1c0.2-0.2,0.9-0.7,2.1-0.7h4.8c0.2,0,0.3-0.2,0.3-0.3V9.4C20.9,9.1,20.7,9.1,20.7,9.1z
	 M19.6,16.1c0,0.2-0.1,0.3-0.3,0.3h-3.9c-1.4,0-1.9,0.6-1.9,0.6l-0.1,0.1l0,0h0c-0.1,0.2-0.3,0-0.3,0L13,17
	c-0.1-0.1-0.6-0.6-1.8-0.6h-4c-0.2,0-0.3-0.1-0.3-0.3V7.7c0-0.2,0.1-0.3,0.3-0.3h3.1c2.3,0,2.6,1.3,2.6,1.7V15
	c0,0.4,0.2,0.5,0.3,0.5h0.2c0.1,0,0.3-0.1,0.3-0.4v-6h0c0-0.5,0.2-1.6,1.6-1.6h4.1c0.2,0,0.3,0.1,0.3,0.3V16.1z"/>
</svg>
