<?xml version="1.0" encoding="utf-8"?>
<!-- Generator: Adobe Illustrator 19.1.0, SVG Export Plug-In . SVG Version: 6.00 Build 0)  -->
<svg version="1.1" id="Layer_1" xmlns="http://www.w3.org/2000/svg" xmlns:xlink="http://www.w3.org/1999/xlink" x="0px" y="0px"
	 viewBox="0 0 22.1 22" style="enable-background:new 0 0 22.1 22;" xml:space="preserve">
<style type="text/css">
	.st0{fill:#231F20;}
	.st1{fill:#010202;}
</style>
<g>
	<g>
		<path class="st0" d="M6.7,10.8l-1.8,4.8c-0.1,0.3,0,0.5,0.3,0.4l5.2-0.2c0.1,0,0.2,0,0.3-0.1l0,0c0,0,0,0,0,0l4.7-3.5l-0.8-1.1
			l-4.3,3.1c-0.2,0.1-0.4,0.1-0.5-0.1l-0.2-0.3c-0.1-0.2-0.1-0.4,0.1-0.5l4.3-3.1l-0.8-1.1l-4.3,3.2c-0.2,0.1-0.4,0.1-0.5-0.1
			l-0.2-0.3C8,11.7,8,11.5,8.2,11.4l4.3-3.2L11.6,7l-4.6,3.4C6.9,10.4,6.7,10.6,6.7,10.8z M7.2,11.7L9.7,15c0.1,0.2-0.1,0.5-0.4,0.6
			l-2.8,0.1c0,0,0-0.1,0-0.1l-0.7-1c0,0,0,0,0,0l0.9-2.6C6.7,11.6,7.1,11.5,7.2,11.7z"/>
		<path class="st0" d="M12,6.8l0.5-0.4c1-0.7,2.4-0.5,3.2,0.5l1.1,1.6c0.7,1,0.5,2.4-0.5,3.2L15.8,12L12,6.8z"/>
	</g>
</g>
<g>
	<polygon class="st1" points="20.1,20 18.1,20 18.1,22 22.1,22 22.1,18 20.1,18 	"/>
	<polygon class="st1" points="8.8,20 8.8,22 8.8,22 13.1,22 13.1,22 13.4,22 13.4,20 8.8,20 	"/>
	<polygon class="st1" points="18.1,0 18.1,0 18.1,2 18.1,2 20.1,2 20.1,4 20.1,4 22.1,4 22.1,4 22.1,0 22.1,0 	"/>
	<polygon class="st1" points="20.1,8.7 20.1,12.3 20.1,13.3 22.1,13.3 22.1,13.2 22.1,8.7 22.1,8.7 20.1,8.7 	"/>
	<polygon class="st1" points="2.1,18 2.1,18 0.1,18 0.1,18 0.1,22 0.1,22 4.1,22 4.1,22 4.1,20 4.1,20 2.1,20 	"/>
	<polygon class="st1" points="2,2 4,2 4,0 0,0 0,4 2,4 	"/>
	<rect x="8.7" y="0" class="st1" width="4.7" height="2"/>
	<rect y="8.7" class="st1" width="2" height="4.7"/>
</g>
</svg>
