<?xml version="1.0" encoding="utf-8"?>
<!-- Generator: Adobe Illustrator 19.1.0, SVG Export Plug-In . SVG Version: 6.00 Build 0)  -->
<svg version="1.1" id="Layer_1" xmlns="http://www.w3.org/2000/svg" xmlns:xlink="http://www.w3.org/1999/xlink" x="0px" y="0px"
	 viewBox="0 0 24.4 25.2" style="enable-background:new 0 0 24.4 25.2;" xml:space="preserve">
<style type="text/css">
	.st0{fill:#231F20;}
	.st1{fill:#010202;}
</style>
<g>
	<g>
		<path class="st0" d="M6.2,13.5l6.2,2.3c0.3,0.1,0.6-0.1,0.6-0.4l-0.3-6.6c0-0.1,0-0.3-0.1-0.4l0,0c0,0,0,0,0-0.1l-4.4-6L6.6,3.4
			l4,5.4c0.2,0.2,0.1,0.5-0.1,0.7l-0.3,0.3C9.9,9.9,9.6,9.8,9.5,9.6l-4-5.4l-1.4,1l4,5.5c0.1,0.2,0.1,0.5-0.1,0.6l-0.4,0.3
			c-0.2,0.1-0.5,0.1-0.6-0.1l-4-5.5L1.4,7.2L5.7,13C5.8,13.2,5.9,13.4,6.2,13.5z M7.3,12.8l4.3-3.1c0.3-0.2,0.7,0.1,0.7,0.5l0.1,3.6
			c-0.1,0-0.1,0-0.2,0.1l-1.3,0.9c0,0,0,0,0,0l-3.3-1.1C7.2,13.5,7,12.9,7.3,12.8z"/>
		<path class="st0" d="M1.1,6.8L0.6,6.1C-0.4,4.8-0.1,3,1.2,2l2-1.5c1.3-0.9,3.1-0.7,4.1,0.6l0.5,0.7L1.1,6.8z"/>
	</g>
</g>
<g>
	<polygon class="st1" points="22.4,23.2 20.4,23.2 20.4,25.2 24.4,25.2 24.4,21.2 22.4,21.2 	"/>
	<rect x="11.1" y="23.2" class="st1" width="4.7" height="2"/>
	<polygon class="st1" points="4.4,21.2 2.4,21.2 2.4,25.2 6.4,25.2 6.4,23.2 4.4,23.2 	"/>
	<polygon class="st1" points="20.4,3.3 20.4,5.3 22.4,5.3 22.4,7.3 24.4,7.3 24.4,3.3 	"/>
	<rect x="22.4" y="11.9" class="st1" width="2" height="4.7"/>
	<polygon class="st1" points="4.4,14.9 2.4,12.2 2.4,16.6 4.4,16.6 	"/>
	<polygon class="st1" points="15.8,5.3 15.8,3.3 11.1,3.3 12.6,5.3 	"/>
</g>
</svg>
