<?xml version="1.0" encoding="utf-8"?>
<!-- Generator: Adobe Illustrator 19.1.0, SVG Export Plug-In . SVG Version: 6.00 Build 0)  -->
<svg version="1.1" id="Layer_1" xmlns="http://www.w3.org/2000/svg" xmlns:xlink="http://www.w3.org/1999/xlink" x="0px" y="0px"
	 viewBox="0 0 23.1 21.1" style="enable-background:new 0 0 23.1 21.1;" xml:space="preserve">
<style type="text/css">
	.st0{fill:#010202;}
</style>
<path class="st0" d="M22.8,17.5L13.6,1.2c-0.9-1.7-3.3-1.7-4.2,0L0.3,17.5c-0.9,1.6,0.3,3.6,2.1,3.6h18.2
	C22.5,21.1,23.7,19.1,22.8,17.5z M12.6,16.7c0,0.1-0.1,0.3-0.2,0.3h-1.6c-0.1,0-0.3-0.1-0.3-0.3v-1.5c0-0.1,0.1-0.3,0.3-0.3h1.6
	c0.1,0,0.2,0.1,0.2,0.3V16.7z M12.6,13.8c0,0.1-0.1,0.2-0.3,0.2h-1.6c-0.2,0-0.3-0.1-0.3-0.2l-0.1-6c0,0,0-0.1,0.1-0.1
	c0,0,0.1-0.1,0.2-0.1h1.8c0.1,0,0.1,0,0.2,0.1c0,0,0.1,0.1,0.1,0.1L12.6,13.8z"/>
</svg>
