<?xml version="1.0" encoding="utf-8"?>
<!-- Generator: Adobe Illustrator 19.1.0, SVG Export Plug-In . SVG Version: 6.00 Build 0)  -->
<svg version="1.1" id="Layer_1" xmlns="http://www.w3.org/2000/svg" xmlns:xlink="http://www.w3.org/1999/xlink" x="0px" y="0px"
	 viewBox="0 0 28 22.8" style="enable-background:new 0 0 28 22.8;" xml:space="preserve">
<style type="text/css">
	.st0{fill:#010202;}
	.st1{fill:none;stroke:#010202;stroke-width:2;stroke-miterlimit:10;}
</style>
<rect x="16.8" y="15.6" transform="matrix(0.7071 -0.7071 0.7071 0.7071 -5.3318 20.1807)" class="st0" width="9.8" height="1.9"/>
<path class="st0" d="M13.4,16.5c0-3.3,1.9-6.1,4.7-7.4l-4.4-7.8c-0.9-1.7-3.3-1.7-4.2,0L0.3,17.5c-0.9,1.6,0.3,3.6,2.1,3.6h12.3
	C13.9,19.8,13.4,18.2,13.4,16.5z M12.6,15.7c0,0.1-0.1,0.3-0.2,0.3h-1.6c-0.1,0-0.3-0.1-0.3-0.3v-1.5c0-0.1,0.1-0.3,0.3-0.3h1.6
	c0.1,0,0.2,0.1,0.2,0.3V15.7z M12.6,12.8c0,0.1-0.1,0.2-0.3,0.2h-1.6c-0.2,0-0.3-0.1-0.3-0.2l-0.1-6c0,0,0-0.1,0.1-0.1
	c0,0,0.1-0.1,0.2-0.1h1.8c0.1,0,0.1,0,0.2,0.1c0,0,0.1,0.1,0.1,0.1L12.6,12.8z"/>
<circle class="st1" cx="21.7" cy="16.5" r="5.3"/>
</svg>
