<?xml version="1.0" encoding="utf-8"?>
<!-- Generator: Adobe Illustrator 19.1.0, SVG Export Plug-In . SVG Version: 6.00 Build 0)  -->
<svg version="1.1" id="Layer_1" xmlns="http://www.w3.org/2000/svg" xmlns:xlink="http://www.w3.org/1999/xlink" x="0px" y="0px"
	 viewBox="0 0 24.9 24.3" style="enable-background:new 0 0 24.9 24.3;" xml:space="preserve">
<style type="text/css">
	.st0{fill:#010202;}
</style>
<g>
	<g>
		<polygon class="st0" points="24.9,24.3 20.9,24.3 20.9,22.3 22.9,22.3 22.9,20.3 24.9,20.3 		"/>
	</g>
	<g>
		<rect x="11.6" y="22.3" class="st0" width="4.7" height="2"/>
	</g>
	<g>
		<polygon class="st0" points="6.9,24.3 2.9,24.3 2.9,20.3 4.9,20.3 4.9,22.3 6.9,22.3 		"/>
	</g>
	<g>
		<polygon class="st0" points="24.9,6.3 22.9,6.3 22.9,4.3 20.9,4.3 20.9,2.3 24.9,2.3 		"/>
	</g>
	<g>
		<rect x="22.9" y="11" class="st0" width="2" height="4.7"/>
	</g>
</g>
<g id="Icons_with_numbers_2_">
	<g id="Group_2_" transform="translate(0.000000, -528.000000)">
		<path id="Oval_210_copy_2_" class="st0" d="M3.5,534v1.7H6v2.6h1.7v-2.6h2.6V534H7.8v-2.6H6v2.6H3.5z M6.9,541.8
			c-3.8,0-6.9-3.1-6.9-6.9c0-3.8,3.1-6.9,6.9-6.9s6.9,3.1,6.9,6.9C13.8,538.7,10.7,541.8,6.9,541.8z"/>
	</g>
</g>
<path class="st0" d="M2.9,14.5v3.1h2v-2.4C4.2,15.1,3.5,14.8,2.9,14.5z"/>
<path class="st0" d="M14.1,2.3c0.4,0.6,0.7,1.3,0.9,2h3.2v-2H14.1z"/>
</svg>
