<?xml version="1.0" encoding="UTF-8" standalone="no"?>
<!-- Created with Inkscape (http://www.inkscape.org/) -->

<svg
   xmlns:dc="http://purl.org/dc/elements/1.1/"
   xmlns:cc="http://creativecommons.org/ns#"
   xmlns:rdf="http://www.w3.org/1999/02/22-rdf-syntax-ns#"
   xmlns:svg="http://www.w3.org/2000/svg"
   xmlns="http://www.w3.org/2000/svg"
   xmlns:sodipodi="http://sodipodi.sourceforge.net/DTD/sodipodi-0.dtd"
   xmlns:inkscape="http://www.inkscape.org/namespaces/inkscape"
   width="198.82448mm"
   height="8.2675371mm"
   viewBox="0 0 704.49617 29.294423"
   id="svg6416"
   version="1.1"
   inkscape:version="0.91 r13725"
   sodipodi:docname="icons-overlay.svg">
  <defs
     id="defs6418" />
  <sodipodi:namedview
     id="base"
     pagecolor="#ffffff"
     bordercolor="#666666"
     borderopacity="1.0"
     inkscape:pageopacity="0.0"
     inkscape:pageshadow="2"
     inkscape:zoom="1.979899"
     inkscape:cx="375.81888"
     inkscape:cy="53.181061"
     inkscape:document-units="px"
     inkscape:current-layer="errors"
     showgrid="false"
     inkscape:window-width="2373"
     inkscape:window-height="1264"
     inkscape:window-x="21"
     inkscape:window-y="2"
     inkscape:window-maximized="0"
     fit-margin-top="0"
     fit-margin-left="0"
     fit-margin-right="0"
     fit-margin-bottom="0"
     inkscape:showpageshadow="false"
     borderlayer="false"
     showguides="true"
     inkscape:guide-bbox="true">
    <inkscape:grid
       type="xygrid"
       id="grid9685"
       originx="-9.5342599e-06"
       originy="3.5724736e-05" />
    <sodipodi:guide
       position="52.527933,29.294456"
       orientation="0,1"
       id="guide10237" />
    <sodipodi:guide
       position="-25.253821,3.5724736e-05"
       orientation="0,1"
       id="guide10239" />
    <sodipodi:guide
       position="-9.5342599e-06,71.973397"
       orientation="1,0"
       id="guide10243" />
    <sodipodi:guide
       position="26.263962,75.003854"
       orientation="1,0"
       id="guide10250" />
  </sodipodi:namedview>
  <metadata
     id="metadata6421">
    <rdf:RDF>
      <cc:Work
         rdf:about="">
        <dc:format>image/svg+xml</dc:format>
        <dc:type
           rdf:resource="http://purl.org/dc/dcmitype/StillImage" />
        <dc:title></dc:title>
      </cc:Work>
    </rdf:RDF>
  </metadata>
  <g
     inkscape:label="Layer 1"
     inkscape:groupmode="layer"
     id="layer1"
     transform="translate(43.437851,-129.0716)">
    <g
       id="code"
       inkscape:label="#g10290"
       style="fill:#b3b3b3">
      <g
         transform="translate(-43.437851,131.44248)"
         id="g4095"
         style="display:inline;fill:#b3b3b3">
        <path
           style="fill:#b3b3b3"
           inkscape:connector-curvature="0"
           class="st0"
           d="M 25.7,0 0.8,0 C 0.4,0 0,0.4 0,0.8 L 0,21.2 C 0,21.6 0.4,22 0.8,22 l 24.9,0 c 0.4,0 0.8,-0.4 0.8,-0.8 l 0,-20.4 C 26.5,0.4 26.1,0 25.7,0 Z m -4.2,1.1 c 0.6,0 1.1,0.5 1.1,1.1 0,0.6 -0.5,1.1 -1.1,1.1 -0.6,0 -1.1,-0.5 -1.1,-1.1 0,-0.6 0.5,-1.1 1.1,-1.1 z m 4.1,19.4 c 0,0.3 -0.2,0.5 -0.5,0.5 L 1.4,21.1 c -0.3,0 -0.5,-0.2 -0.5,-0.5 l 0,-16.2 24.7,0 0,16.1 z M 24.5,3.3 c -0.6,0 -1.1,-0.5 -1.1,-1.1 0,-0.6 0.5,-1.1 1.1,-1.1 0.6,0 1.1,0.5 1.1,1.1 0,0.6 -0.5,1.1 -1.1,1.1 z"
           id="path4078" />
        <path
           style="fill:#b3b3b3"
           inkscape:connector-curvature="0"
           class="st1"
           d="m 19.8,12.5 -0.1,-0.2 c -0.2,-0.6 -0.6,-1.5 -0.6,-2 0,-0.5 0.1,-1 0.3,-1.6 C 19.5,8.3 19.7,8 19.7,8 l 0.7,-1.4 -9.6,0 -0.3,0.6 C 10.3,7.6 9.9,8.6 9.8,9.7 l 1.3,-0.3 c 0.1,-0.7 0.3,-1.2 0.5,-1.6 l 6.9,0 0,0.1 0,0 c 0,0.1 -0.1,0.2 -0.1,0.4 -0.2,0.5 -0.4,1.2 -0.4,1.9 0,0.7 0.3,1.6 0.7,2.5 l 0.1,0.1 c 0.3,0.7 0.6,1.5 0.6,2.1 0,1 -0.4,2 -0.6,2.5 l -6.9,0 c 0.1,-0.1 0.1,-0.3 0.2,-0.5 0,-0.1 0.1,-0.3 0.1,-0.4 L 10.7,17 c -0.1,0.2 -0.2,0.4 -0.2,0.4 l -0.7,1.4 9.6,0 0.3,-0.5 c 0.2,-0.4 0.8,-1.7 0.8,-3.1 0,-0.9 -0.4,-1.8 -0.7,-2.7 z"
           id="path4080" />
        <g
           id="g4082"
           style="fill:#b3b3b3">
          <path
             style="fill:#b3b3b3"
             inkscape:connector-curvature="0"
             class="st1"
             d="m 13.4,15.2 2.6,-3 c 0.1,-0.2 0.1,-0.3 -0.1,-0.4 l -3.8,-1.3 c -0.1,0 -0.2,0 -0.2,0 l 0,0 c 0,0 0,0 0,0 l -4.4,1.2 0.3,1 3.9,-1 c 0.2,0 0.3,0.1 0.4,0.2 l 0.1,0.2 c 0,0.2 -0.1,0.3 -0.2,0.4 l -3.9,1 0.3,1 4,-1 c 0.1,0 0.3,0 0.3,0.2 l 0.1,0.3 c 0,0.1 0,0.3 -0.2,0.3 l -4,1 0.3,1.1 4.2,-1.1 c 0,0 0.2,0 0.3,-0.1 z m -0.2,-0.8 -0.8,-3.1 c 0,-0.2 0.2,-0.4 0.5,-0.3 l 2,0.7 c 0,0 0,0.1 0,0.1 l 0.2,0.9 c 0,0 0,0 0,0 l -1.4,1.6 c -0.1,0.3 -0.4,0.3 -0.5,0.1 z"
             id="path4084" />
          <path
             style="fill:#b3b3b3"
             inkscape:connector-curvature="0"
             class="st1"
             d="M 8.5,16.6 8,16.7 C 7.1,16.9 6.1,16.4 5.8,15.4 L 5.4,14 C 5.2,13.1 5.7,12.1 6.7,11.8 l 0.5,-0.1 1.3,4.9 z"
             id="path4086" />
        </g>
      </g>
      <rect
         y="129.07159"
         x="-43.437851"
         height="29.294424"
         width="26.263966"
         id="rect10252"
         style="fill:#b3b3b3;fill-opacity:0" />
    </g>
    <g
       id="tutorials"
       inkscape:label="#g10299"
       style="fill:#b3b3b3">
      <g
         transform="translate(-3.437851,132.62931)"
         id="g4666"
         style="display:inline;fill:#b3b3b3">
        <polygon
           style="fill:#b3b3b3"
           class="st0"
           points="27,7.4 13.5,0 0,7.4 13.5,14.7 "
           id="polygon4653" />
        <polygon
           style="fill:#b3b3b3"
           class="st0"
           points="4.9,16.8 13.5,21.5 22.1,16.8 22.1,11.4 13.5,16.2 4.9,11.4 "
           id="polygon4655" />
        <path
           style="fill:#b3b3b3"
           inkscape:connector-curvature="0"
           class="st0"
           d="m 25.7,7.4 1.3,0 0,8.6 c 0,0.7 -0.5,1.2 -1.2,1.2 l 0,0 c -0.7,0 -1.2,-0.5 -1.2,-1.2 l 0,-7.4 C 24.5,7.9 25.1,7.4 25.7,7.4 Z"
           id="path4657" />
      </g>
      <rect
         style="fill:#b3b3b3;fill-opacity:0"
         id="rect10254"
         width="27.274118"
         height="29.294424"
         x="-3.437851"
         y="129.07159" />
    </g>
    <g
       id="select-grouped"
       inkscape:label="#g10312"
       style="fill:#b3b3b3">
      <g
         transform="translate(76.562149,130.92316)"
         id="g4609"
         style="display:inline;fill:#b3b3b3">
        <path
           style="fill:#b3b3b3"
           inkscape:connector-curvature="0"
           class="st0"
           d="m 12.5,11.4 -5.2,11 -1.6,-4 -4.4,4 L 0,21 4.5,17.1 0.8,15.1 12.5,11.4"
           id="path4562" />
        <polygon
           style="fill:#b3b3b3"
           class="st0"
           points="8.1,5.3 8.1,11.1 15.6,8.7 12.5,15.1 17.9,15.1 17.9,5.3 "
           id="polygon4564" />
        <g
           id="g4566"
           style="fill:#b3b3b3">
          <polygon
             style="fill:#b3b3b3"
             class="st0"
             points="2.9,4.1 2.9,2.1 4.9,2.1 4.9,0.1 0.9,0.1 0.9,4.1 "
             id="polygon4568" />
          <polygon
             style="fill:#b3b3b3"
             class="st0"
             points="18.8,0 18.8,2 20.8,2 20.8,4 22.8,4 22.8,0 "
             id="polygon4570" />
          <rect
             style="fill:#b3b3b3"
             x="20.799999"
             y="7"
             class="st0"
             width="2"
             height="4.6999998"
             id="rect4572" />
          <rect
             style="fill:#b3b3b3"
             x="9.5"
             y="0"
             class="st0"
             width="4.6999998"
             height="2"
             id="rect4574" />
          <polygon
             style="fill:#b3b3b3"
             class="st0"
             points="0.9,13.1 2.9,12.5 2.9,8.8 0.9,8.8 "
             id="polygon4576" />
          <polygon
             style="fill:#b3b3b3"
             class="st0"
             points="14.2,22.1 14.2,20.1 10.6,20.1 9.6,22.1 "
             id="polygon4578" />
        </g>
        <path
           style="fill:#b3b3b3"
           inkscape:connector-curvature="0"
           class="st0"
           d="m 12.5,11.4 -5.2,11 -1.6,-4 -4.4,4 L 0,21 4.5,17.1 0.8,15.1 12.5,11.4"
           id="path4580" />
        <polygon
           style="fill:#b3b3b3"
           class="st0"
           points="8.1,5.3 8.1,11.1 15.6,8.7 12.5,15.1 17.9,15.1 17.9,5.3 "
           id="polygon4582" />
        <g
           id="g4584"
           style="fill:#b3b3b3">
          <polygon
             style="fill:#b3b3b3"
             class="st0"
             points="2.9,4.1 2.9,2.1 4.9,2.1 4.9,0.1 0.9,0.1 0.9,4.1 "
             id="polygon4586" />
          <polygon
             style="fill:#b3b3b3"
             class="st0"
             points="18.8,0 18.8,2 20.8,2 20.8,4 22.8,4 22.8,0 "
             id="polygon4588" />
          <rect
             style="fill:#b3b3b3"
             x="20.799999"
             y="7"
             class="st0"
             width="2"
             height="4.6999998"
             id="rect4590" />
          <rect
             style="fill:#b3b3b3"
             x="9.5"
             y="0"
             class="st0"
             width="4.6999998"
             height="2"
             id="rect4592" />
          <polygon
             style="fill:#b3b3b3"
             class="st0"
             points="0.9,13.1 2.9,12.5 2.9,8.8 0.9,8.8 "
             id="polygon4594" />
          <polygon
             style="fill:#b3b3b3"
             class="st0"
             points="14.2,22.1 14.2,20.1 10.6,20.1 9.6,22.1 "
             id="polygon4596" />
        </g>
        <rect
           style="fill:#b3b3b3"
           x="18.9"
           y="20.1"
           transform="matrix(0.7071,-0.7071,0.7071,0.7071,-7.8935,23.0133)"
           class="st0"
           width="9.8000002"
           height="1.9"
           id="rect4598" />
        <circle
           style="fill:none;stroke:#b3b3b3;stroke-width:2;stroke-miterlimit:10"
           class="st1"
           cx="23.799999"
           cy="21"
           r="5.3000002"
           id="circle4600" />
      </g>
      <rect
         y="129.07159"
         x="76.562149"
         height="29.294424"
         width="30.557114"
         id="rect10256"
         style="fill:#b3b3b3;fill-opacity:0" />
    </g>
    <g
       id="select-grouped-hilited"
       inkscape:label="#g10336"
       style="fill:#b3b3b3">
      <g
         transform="translate(116.56215,130.90338)"
         id="g4537"
         style="display:inline;fill:#b3b3b3">
        <path
           style="fill:#b3b3b3"
           inkscape:connector-curvature="0"
           class="st0"
           d="m 12.5,11.4 -5.2,11 -1.6,-4 -4.4,4 L 0,21 4.5,17.1 0.8,15.1 12.5,11.4"
           id="path4490" />
        <polygon
           style="fill:#b3b3b3"
           class="st0"
           points="17.9,5.3 8.1,5.3 8.1,11.1 15.6,8.7 12.5,15.1 17.9,15.1 "
           id="polygon4492" />
        <g
           id="g4494"
           style="fill:#b3b3b3">
          <polygon
             style="fill:#b3b3b3"
             class="st0"
             points="0.9,4.1 2.9,4.1 2.9,2.1 4.9,2.1 4.9,0.1 0.9,0.1 "
             id="polygon4496" />
          <polygon
             style="fill:#b3b3b3"
             class="st0"
             points="18.8,20.1 18.8,22.1 22.8,22.1 22.8,18.1 20.8,18.1 20.8,20.1 "
             id="polygon4498" />
          <polygon
             style="fill:#b3b3b3"
             class="st0"
             points="22.8,0 18.8,0 18.8,2 20.8,2 20.8,4 22.8,4 "
             id="polygon4500" />
          <rect
             style="fill:#b3b3b3"
             x="20.799999"
             y="8.6999998"
             class="st0"
             width="2"
             height="4.6999998"
             id="rect4502" />
          <rect
             style="fill:#b3b3b3"
             x="9.5"
             y="0"
             class="st0"
             width="4.6999998"
             height="2"
             id="rect4504" />
          <polygon
             style="fill:#b3b3b3"
             class="st0"
             points="2.9,12.5 2.9,8.8 0.9,8.8 0.9,13.1 "
             id="polygon4506" />
          <polygon
             style="fill:#b3b3b3"
             class="st0"
             points="14.2,20.1 10.6,20.1 9.6,22.1 14.2,22.1 "
             id="polygon4508" />
        </g>
        <path
           style="fill:#b3b3b3"
           inkscape:connector-curvature="0"
           class="st0"
           d="m 12.5,11.4 -5.2,11 -1.6,-4 -4.4,4 L 0,21 4.5,17.1 0.8,15.1 12.5,11.4"
           id="path4510" />
        <polygon
           style="fill:#b3b3b3"
           class="st0"
           points="17.9,5.3 8.1,5.3 8.1,11.1 15.6,8.7 12.5,15.1 17.9,15.1 "
           id="polygon4512" />
        <g
           id="g4514"
           style="fill:#b3b3b3">
          <polygon
             style="fill:#b3b3b3"
             class="st0"
             points="0.9,4.1 2.9,4.1 2.9,2.1 4.9,2.1 4.9,0.1 0.9,0.1 "
             id="polygon4516" />
          <polygon
             style="fill:#b3b3b3"
             class="st0"
             points="18.8,20.1 18.8,22.1 22.8,22.1 22.8,18.1 20.8,18.1 20.8,20.1 "
             id="polygon4518" />
          <polygon
             style="fill:#b3b3b3"
             class="st0"
             points="22.8,0 18.8,0 18.8,2 20.8,2 20.8,4 22.8,4 "
             id="polygon4520" />
          <rect
             style="fill:#b3b3b3"
             x="20.799999"
             y="8.6999998"
             class="st0"
             width="2"
             height="4.6999998"
             id="rect4522" />
          <rect
             style="fill:#b3b3b3"
             x="9.5"
             y="0"
             class="st0"
             width="4.6999998"
             height="2"
             id="rect4524" />
          <polygon
             style="fill:#b3b3b3"
             class="st0"
             points="2.9,12.5 2.9,8.8 0.9,8.8 0.9,13.1 "
             id="polygon4526" />
          <polygon
             style="fill:#b3b3b3"
             class="st0"
             points="14.2,20.1 10.6,20.1 9.6,22.1 14.2,22.1 "
             id="polygon4528" />
        </g>
      </g>
      <rect
         style="fill:#b3b3b3;fill-opacity:0"
         id="rect10258"
         width="30.557114"
         height="29.294424"
         x="116.56215"
         y="129.07159" />
    </g>
    <g
       id="test"
       inkscape:label="#g10306"
       style="fill:#b3b3b3">
      <g
         transform="translate(36.562149,132.62931)"
         id="g4634"
         style="display:inline;fill:#b3b3b3">
        <path
           style="fill:#b3b3b3"
           inkscape:connector-curvature="0"
           class="st0"
           d="M 31.1,1.2 C 31.1,0.5 30.6,0 29.9,0 L 1.2,0 C 0.5,0 0,0.5 0,1.2 l 0,19.1 c 0,0.7 0.5,1.2 1.2,1.2 l 28.7,0 c 0.7,0 1.2,-0.5 1.2,-1.2 l 0,-19.1 z m -29,10.9 c -0.7,0 -1.3,-0.6 -1.3,-1.3 0,-0.7 0.6,-1.3 1.3,-1.3 0.7,0 1.3,0.6 1.3,1.3 0.1,0.7 -0.5,1.3 -1.3,1.3 z m 2.2,8.3 0,-19.3 23.7,0 0,19.3 -23.7,0 z m 24.8,-6.7 c -0.2,0 -0.4,-0.2 -0.4,-0.4 l 0,-5 c 0,-0.2 0.2,-0.4 0.4,-0.4 0.2,0 0.4,0.2 0.4,0.4 l 0,5 c 0,0.2 -0.2,0.4 -0.4,0.4 z"
           id="path4636" />
        <path
           style="fill:#b3b3b3"
           inkscape:connector-curvature="0"
           class="st0"
           d="M 12.8,6 C 12.7,6 12.6,6 12.5,6 12.2,6 12,6.2 12,6.6 l 0,0 0,9.4 0,0 c 0,0.3 0.2,0.6 0.5,0.6 0.1,0 0.2,0 0.3,-0.1 l 7.6,-4.6 c 0.2,-0.2 0.3,-0.4 0.3,-0.6 0,-0.3 -0.1,-0.5 -0.3,-0.6 L 12.8,6 Z"
           id="path4638" />
      </g>
      <rect
         y="129.07159"
         x="36.562149"
         height="29.294424"
         width="31.314728"
         id="rect10260"
         style="fill:#b3b3b3;fill-opacity:0" />
    </g>
    <g
       id="sample-stacks"
       inkscape:label="#g10360"
       style="fill:#b3b3b3">
      <g
         transform="translate(156.56215,132.72931)"
         id="g4462"
         style="display:inline;fill:#b3b3b3">
        <g
           id="g4464"
           style="fill:#b3b3b3">
          <path
             style="fill:#b3b3b3"
             inkscape:connector-curvature="0"
             class="st0"
             d="m 16.5,0 0,0 0,0 z"
             id="path4466" />
          <path
             style="fill:#b3b3b3"
             inkscape:connector-curvature="0"
             class="st0"
             d="M 23.3,16.4 C 22.5,16.1 21.1,16 20.5,15.8 20.1,15.6 19.4,15.5 19.2,15.2 19,15 19,13.1 19,13.1 c 0,0 0.5,-0.5 0.7,-1 0.2,-0.5 0.4,-2 0.4,-2 0,0 0,0 0.1,0 0.2,0 0.4,-0.1 0.6,-0.8 C 21,8.5 21.3,8 21.2,7.4 21.2,7.1 21,7 20.9,7 20.8,7 20.8,7 20.8,7 20.8,7 21.2,6.4 21.2,4.3 21.2,2.1 19.5,0 16.5,0 c -3.1,0 -4.7,2.1 -4.7,4.3 0,2.1 0.4,2.7 0.4,2.7 0,0 0,0 -0.1,0 -0.1,0 -0.3,0.1 -0.3,0.5 -0.1,0.6 0.2,1.1 0.4,1.9 0.1,0.7 0.4,0.8 0.6,0.8 0.1,0 0.1,0 0.1,0 0,0 0.1,1.5 0.4,2 0.2,0.5 0.7,1 0.7,1 0,0 0,1.8 -0.2,2.1 -0.2,0.2 -0.9,0.4 -1.3,0.6 -0.6,0.2 -1.9,0.3 -2.8,0.6 -0.8,0.3 -3.4,1.5 -3.4,4.8 l 20.4,0 c 0,-3.4 -2.6,-4.6 -3.4,-4.9 z"
             id="path4468" />
        </g>
        <path
           style="fill:#b3b3b3"
           inkscape:connector-curvature="0"
           class="st0"
           d="M 8.2,15.4 C 8.9,15.1 9.5,15.1 10,15 10,15 10.3,14.5 9.4,14.4 9.4,14.4 8.1,14.1 8,13.9 7.9,13.7 7.9,12.7 7.9,12.7 7.9,12.7 9.7,12.6 10.4,12 9.3,10.3 9.9,8.3 9.6,6.4 9.4,4.5 8.3,3.4 6.1,3.4 c 0,0 0,0 -0.1,0 l 0,0 C 4,3.5 3,4.7 2.7,6.6 2.4,8.5 3.1,10.7 2,12.2 c 0.7,0.6 2.3,0.6 2.5,0.6 0,0 0,0 0,0 l 0,0 c 0,0 0.1,1 -0.1,1.2 C 4.3,14.2 3.8,14.3 3.5,14.4 2.9,14.5 2.2,14.8 1.6,15 1.1,15.1 0,16.2 0,17.6 l 5.9,0 C 6.1,17.1 7.2,16 8.2,15.4 Z"
           id="path4470" />
        <path
           style="fill:#b3b3b3"
           inkscape:connector-curvature="0"
           class="st0"
           d="M 30.2,6.5 C 30,4.6 28.9,3.5 26.8,3.5 l 0,0 c -0.1,0 -0.1,0 -0.1,0 -2.1,0 -3.2,1.2 -3.5,3 -0.2,1.9 0.4,3.9 -0.8,5.6 0.7,0.6 2.5,0.7 2.5,0.7 0,0 0.1,1 -0.1,1.2 -0.1,0.2 -1.4,0.5 -1.4,0.5 -0.9,0.2 -0.6,0.6 -0.6,0.6 0.5,0.1 1.2,0.1 1.8,0.4 1.1,0.5 2.2,1.6 2.4,2.2 l 5.9,0 C 32.9,16.3 31.8,15.2 31.2,15 30.6,14.8 29.9,14.6 29.3,14.4 29,14.3 28.6,14.2 28.4,14 28.3,13.8 28.3,12.8 28.3,12.8 l 0,0 c 0,0 0,0 0,0 0.2,0 1.8,0 2.5,-0.6"
           id="path4472" />
      </g>
      <rect
         style="fill:#b3b3b3;fill-opacity:0"
         id="rect10262"
         width="33.082497"
         height="29.294424"
         x="156.56215"
         y="129.07159" />
    </g>
    <g
       id="resources"
       inkscape:label="#g10369"
       style="fill:#b3b3b3">
      <g
         transform="translate(196.56215,132.82074)"
         id="g4440"
         style="display:inline;fill:#b3b3b3">
        <path
           style="fill:#b3b3b3"
           inkscape:connector-curvature="0"
           class="st0"
           d="m 1.1,22 3.7,0 c 0.6,0 1.1,-0.5 1.1,-1.1 L 5.9,1.1 C 5.8,0.5 5.3,0 4.7,0 L 1.1,0 C 0.5,0 0,0.5 0,1.1 L 0,20.9 C 0,21.5 0.5,22 1.1,22 Z M 1,3.1 4.8,3.1 C 5.1,3.1 5.3,3.3 5.3,3.6 5.3,3.9 5.1,4 4.8,4 L 1,4 C 0.8,4 0.6,3.8 0.6,3.6 0.6,3.4 0.8,3.1 1,3.1 Z m 0,2 3.8,0 C 5.1,5.1 5.3,5.3 5.3,5.6 5.3,5.9 5.1,6 4.8,6 L 1,6 C 0.8,6 0.6,5.8 0.6,5.5 0.6,5.2 0.8,5.1 1,5.1 Z M 1,7 4.8,7 C 5.1,7 5.3,7.2 5.3,7.5 5.3,7.8 5.1,8 4.8,8 L 1,8 C 0.7,8 0.5,7.8 0.5,7.5 0.6,7.2 0.8,7 1,7 Z"
           id="path4442" />
        <path
           style="fill:#b3b3b3"
           inkscape:connector-curvature="0"
           class="st0"
           d="m 8.2,22 3.7,0 C 12.5,22 13,21.5 13,20.9 L 13,1.1 C 13,0.5 12.5,0 11.9,0 L 8.2,0 C 7.6,0 7.1,0.5 7.1,1.1 l 0,19.8 c 0,0.6 0.5,1.1 1.1,1.1 z M 8.1,3.1 l 3.8,0 c 0.3,0 0.5,0.2 0.5,0.5 0,0.3 -0.3,0.4 -0.5,0.4 L 8.1,4 C 7.8,4 7.6,3.8 7.6,3.6 7.6,3.4 7.8,3.1 8.1,3.1 Z m 0,2 3.8,0 c 0.3,0 0.5,0.2 0.5,0.5 0,0.3 -0.3,0.4 -0.5,0.4 L 8.1,6 C 7.8,6 7.6,5.8 7.6,5.5 7.6,5.2 7.8,5.1 8.1,5.1 Z m 0,1.9 3.8,0 c 0.3,0 0.5,0.2 0.5,0.5 0,0.3 -0.2,0.5 -0.5,0.5 L 8.1,8 C 7.8,8 7.6,7.8 7.6,7.5 7.6,7.2 7.8,7 8.1,7 Z"
           id="path4444" />
        <path
           style="fill:#b3b3b3"
           inkscape:connector-curvature="0"
           class="st0"
           d="m 17.7,21.3 c 0.1,0.5 0.7,0.9 1.2,0.7 l 3.2,-0.8 C 22.6,21.1 23,20.5 22.8,20 L 19,3.6 C 18.9,3.1 18.3,2.7 17.8,2.9 l -3.2,0.8 c -0.5,0.1 -0.9,0.7 -0.7,1.2 l 3.8,16.4 z m 2.1,-12 c 0.1,0.2 -0.1,0.5 -0.3,0.5 l -3.3,0.8 C 16,10.7 15.7,10.5 15.7,10.3 15.6,10.1 15.8,9.8 16,9.8 L 19.3,9 c 0.2,0 0.4,0.1 0.5,0.3 z M 19.4,7.7 c 0.1,0.2 -0.1,0.5 -0.3,0.5 L 15.8,9 C 15.6,9.1 15.3,8.9 15.3,8.7 15.2,8.5 15.4,8.2 15.6,8.2 l 3.3,-0.8 c 0.2,-0.1 0.4,0 0.5,0.3 z M 15.2,6.4 18.5,5.6 C 18.7,5.5 19,5.7 19,5.9 19.1,6.1 18.9,6.4 18.7,6.4 L 15.4,7.2 C 15.2,7.3 14.9,7.1 14.9,6.9 14.8,6.7 14.9,6.4 15.2,6.4 Z"
           id="path4446" />
      </g>
      <rect
         y="129.07159"
         x="196.56215"
         height="29.294424"
         width="23.233511"
         id="rect10264"
         style="fill:#b3b3b3;fill-opacity:0" />
    </g>
    <g
       id="messages-hilited"
       inkscape:label="#g10376"
       style="fill:#b3b3b3">
      <g
         transform="translate(236.56215,134.95022)"
         id="g4432"
         style="display:inline;fill:#b3b3b3">
        <path
           style="fill:#b3b3b3"
           inkscape:connector-curvature="0"
           class="st0"
           d="m 16,14.3 c 0,-1.5 0.4,-2.9 1.1,-4.1 L 15.7,9 13,11.5 10.2,9.1 4,14.4 3.2,13.6 9.4,8.3 3.2,3 4,2.2 l 9,7.7 8.9,-7.7 0.9,0.8 -6.1,5.3 1.1,1 c 1.5,-1.9 3.8,-3.1 6.4,-3.1 0.6,0 1.2,0.1 1.8,0.2 L 26,2.1 C 26,0.9 25.1,0 23.9,0 L 2.1,0 C 0.9,0 0,0.9 0,2.1 l 0,6.2 0,6.2 c 0,1.1 0.9,2.1 2.1,2.1 l 14.3,0 C 16.1,15.9 16,15.1 16,14.3 Z"
           id="path4419" />
        <rect
           style="fill:#b3b3b3"
           x="19.200001"
           y="13.4"
           transform="matrix(0.7071,-0.7071,0.7071,0.7071,-3.0679,21.2899)"
           class="st1"
           width="9.8000002"
           height="1.9"
           id="rect4421" />
        <circle
           style="fill:none;stroke:#b3b3b3;stroke-width:2;stroke-miterlimit:10"
           class="st2"
           cx="24.200001"
           cy="14.3"
           r="5.3000002"
           id="circle4423" />
      </g>
      <rect
         style="fill:#b3b3b3;fill-opacity:0"
         id="rect10266"
         width="31.062193"
         height="29.294424"
         x="236.56215"
         y="129.07159" />
    </g>
    <g
       id="messages"
       inkscape:label="#g10383"
       style="fill:#b3b3b3">
      <path
         style="display:inline;fill:#b3b3b3"
         inkscape:connector-curvature="0"
         class="st0"
         d="m 278.66215,151.67931 21.8,0 c 1.2,0 2.1,-0.9 2.1,-2.1 l 0,-6.2 0,-6.2 c 0,-1.2 -0.9,-2.1 -2.1,-2.1 l -21.8,0 c -1.2,0 -2.1,0.9 -2.1,2.1 l 0,6.2 0,6.2 c 0,1.2 0.9,2.1 2.1,2.1 z m 1.1,-13.6 0.8,-0.8 9,7.7 8.9,-7.7 0.9,0.8 -6.1,5.3 6.1,5.3 -0.8,0.8 -6.2,-5.3 -2.8,2.4 -2.8,-2.4 -6.2,5.3 -0.8,-0.8 6.2,-5.3 -6.2,-5.3 z"
         id="path4406" />
      <rect
         y="129.07159"
         x="276.56213"
         height="29.294424"
         width="31.062193"
         id="rect10268"
         style="fill:#b3b3b3;fill-opacity:0" />
    </g>
    <g
       id="message-box"
       inkscape:label="#g10387"
       style="fill:#b3b3b3">
      <g
         transform="translate(316.56215,131.55444)"
         id="g4399"
         style="display:inline;fill:#b3b3b3">
        <path
           style="fill:#b3b3b3"
           inkscape:connector-curvature="0"
           class="st0"
           d="M 25.7,0 0.8,0 C 0.4,0 0,0.4 0,0.8 L 0,21.2 C 0,21.6 0.4,22 0.8,22 l 24.9,0 c 0.4,0 0.8,-0.4 0.8,-0.8 l 0,-20.4 C 26.5,0.4 26.1,0 25.7,0 Z m -4.2,1.1 c 0.6,0 1.1,0.5 1.1,1.1 0,0.6 -0.5,1.1 -1.1,1.1 -0.6,0 -1.1,-0.5 -1.1,-1.1 0,-0.6 0.5,-1.1 1.1,-1.1 z m 4.1,19.4 c 0,0.3 -0.2,0.5 -0.5,0.5 L 1.4,21.1 c -0.3,0 -0.5,-0.2 -0.5,-0.5 l 0,-16.2 24.7,0 0,16.1 z M 24.5,3.3 c -0.6,0 -1.1,-0.5 -1.1,-1.1 0,-0.6 0.5,-1.1 1.1,-1.1 0.6,0 1.1,0.5 1.1,1.1 0,0.6 -0.5,1.1 -1.1,1.1 z"
           id="path4388" />
        <path
           style="fill:#b3b3b3"
           inkscape:connector-curvature="0"
           class="st0"
           d="M 26.1,5.9 0.2,5.9 C 0.1,5.9 0,6 0,6.1 l 0,15.1 c 0,0.1 0.1,0.2 0.2,0.2 l 23.8,0 c 0.1,0 2.3,-0.1 2.3,-0.2 l 0,-15.1 C 26.3,6 26.2,5.9 26.1,5.9 Z M 3.1,14.6 5.2,12.3 3.1,10 4,9 l 3,3.3 0,0 0,0 -3,3.3 -0.9,-1 z m 8.6,1 -4.7,0 0,-1 4.7,0 0,1 z"
           id="path4390" />
      </g>
      <rect
         style="fill:#b3b3b3;fill-opacity:0"
         id="rect10270"
         width="26.769045"
         height="29.294424"
         x="316.56213"
         y="129.07159" />
    </g>
    <g
       id="group-hilited"
       inkscape:label="#g10393"
       style="fill:#b3b3b3">
      <g
         transform="translate(356.56215,131.35839)"
         id="g4349"
         style="display:inline;fill:#b3b3b3">
        <g
           id="g4313"
           style="fill:#b3b3b3">
          <g
             id="g4315"
             style="fill:#b3b3b3">
            <polygon
               style="fill:#b3b3b3"
               class="st0"
               points="20.9,24.3 20.9,22.3 22.9,22.3 22.9,20.3 24.9,20.3 24.9,24.3 "
               id="polygon4317" />
          </g>
          <g
             id="g4319"
             style="fill:#b3b3b3">
            <rect
               style="fill:#b3b3b3"
               x="11.6"
               y="22.299999"
               class="st0"
               width="4.6999998"
               height="2"
               id="rect4321" />
          </g>
          <g
             id="g4323"
             style="fill:#b3b3b3">
            <polygon
               style="fill:#b3b3b3"
               class="st0"
               points="2.9,24.3 2.9,20.3 4.9,20.3 4.9,22.3 6.9,22.3 6.9,24.3 "
               id="polygon4325" />
          </g>
          <g
             id="g4327"
             style="fill:#b3b3b3">
            <polygon
               style="fill:#b3b3b3"
               class="st0"
               points="22.9,6.3 22.9,4.3 20.9,4.3 20.9,2.3 24.9,2.3 24.9,6.3 "
               id="polygon4329" />
          </g>
          <g
             id="g4331"
             style="fill:#b3b3b3">
            <rect
               style="fill:#b3b3b3"
               x="22.9"
               y="11"
               class="st0"
               width="2"
               height="4.6999998"
               id="rect4333" />
          </g>
        </g>
        <g
           id="Icons_with_numbers_4_"
           style="fill:#b3b3b3">
          <g
             id="Group_4_"
             transform="translate(0,-528)"
             style="fill:#b3b3b3">
            <path
               style="fill:#b3b3b3"
               inkscape:connector-curvature="0"
               id="Oval_210_copy_4_"
               class="st0"
               d="m 3.5,534 0,1.7 6.9,0 0,-1.7 -6.9,0 z m 3.4,7.8 c -3.8,0 -6.9,-3.1 -6.9,-6.9 0,-3.8 3.1,-6.9 6.9,-6.9 3.8,0 6.9,3.1 6.9,6.9 0,3.8 -3.1,6.9 -6.9,6.9 z" />
          </g>
        </g>
        <path
           style="fill:#b3b3b3"
           inkscape:connector-curvature="0"
           class="st0"
           d="m 2.9,14.5 0,3.1 2,0 0,-2.4 C 4.2,15.1 3.5,14.8 2.9,14.5 Z"
           id="path4338" />
        <path
           style="fill:#b3b3b3"
           inkscape:connector-curvature="0"
           class="st0"
           d="m 14.1,2.3 c 0.4,0.6 0.7,1.3 0.9,2 l 3.2,0 0,-2 -4.1,0 z"
           id="path4340" />
      </g>
      <rect
         y="129.07159"
         x="356.56213"
         height="29.294424"
         width="25.253817"
         id="rect10272"
         style="fill:#b3b3b3;fill-opacity:0" />
    </g>
    <g
       id="group"
       inkscape:label="#g10413"
       style="fill:#b3b3b3">
      <g
         transform="translate(396.56215,131.35839)"
         id="g4292"
         style="display:inline;fill:#b3b3b3">
        <g
           id="g4256"
           style="fill:#b3b3b3">
          <g
             id="g4258"
             style="fill:#b3b3b3">
            <polygon
               style="fill:#b3b3b3"
               class="st0"
               points="24.9,20.3 24.9,24.3 20.9,24.3 20.9,22.3 22.9,22.3 22.9,20.3 "
               id="polygon4260" />
          </g>
          <g
             id="g4262"
             style="fill:#b3b3b3">
            <rect
               style="fill:#b3b3b3"
               x="11.6"
               y="22.299999"
               class="st0"
               width="4.6999998"
               height="2"
               id="rect4264" />
          </g>
          <g
             id="g4266"
             style="fill:#b3b3b3">
            <polygon
               style="fill:#b3b3b3"
               class="st0"
               points="6.9,22.3 6.9,24.3 2.9,24.3 2.9,20.3 4.9,20.3 4.9,22.3 "
               id="polygon4268" />
          </g>
          <g
             id="g4270"
             style="fill:#b3b3b3">
            <polygon
               style="fill:#b3b3b3"
               class="st0"
               points="24.9,2.3 24.9,6.3 22.9,6.3 22.9,4.3 20.9,4.3 20.9,2.3 "
               id="polygon4272" />
          </g>
          <g
             id="g4274"
             style="fill:#b3b3b3">
            <rect
               style="fill:#b3b3b3"
               x="22.9"
               y="11"
               class="st0"
               width="2"
               height="4.6999998"
               id="rect4276" />
          </g>
        </g>
        <g
           id="Icons_with_numbers_2_"
           style="fill:#b3b3b3">
          <g
             id="Group_2_"
             transform="translate(0,-528)"
             style="fill:#b3b3b3">
            <path
               style="fill:#b3b3b3"
               inkscape:connector-curvature="0"
               id="Oval_210_copy_2_"
               class="st0"
               d="m 3.5,534 0,1.7 2.5,0 0,2.6 1.7,0 0,-2.6 2.6,0 0,-1.7 -2.5,0 0,-2.6 -1.8,0 0,2.6 -2.5,0 z m 3.4,7.8 c -3.8,0 -6.9,-3.1 -6.9,-6.9 0,-3.8 3.1,-6.9 6.9,-6.9 3.8,0 6.9,3.1 6.9,6.9 0,3.8 -3.1,6.9 -6.9,6.9 z" />
          </g>
        </g>
        <path
           style="fill:#b3b3b3"
           inkscape:connector-curvature="0"
           class="st0"
           d="m 2.9,14.5 0,3.1 2,0 0,-2.4 C 4.2,15.1 3.5,14.8 2.9,14.5 Z"
           id="path4281" />
        <path
           style="fill:#b3b3b3"
           inkscape:connector-curvature="0"
           class="st0"
           d="m 14.1,2.3 c 0.4,0.6 0.7,1.3 0.9,2 l 3.2,0 0,-2 -4.1,0 z"
           id="path4283" />
      </g>
      <rect
         style="fill:#b3b3b3;fill-opacity:0"
         id="rect10274"
         width="25.253817"
         height="29.294424"
         x="396.56213"
         y="129.07159" />
    </g>
    <g
       id="errors-hilited"
       inkscape:label="#g10433"
       style="fill:#b3b3b3">
      <g
         transform="translate(436.56821,132.90226)"
         id="g4248"
         style="display:inline;fill:#b3b3b3">
        <rect
           style="fill:#b3b3b3"
           x="16.799999"
           y="15.6"
           transform="matrix(0.7071,-0.7071,0.7071,0.7071,-5.3318,20.1807)"
           class="st0"
           width="9.8000002"
           height="1.9"
           id="rect4235" />
        <path
           style="fill:#b3b3b3"
           inkscape:connector-curvature="0"
           class="st0"
           d="m 13.4,16.5 c 0,-3.3 1.9,-6.1 4.7,-7.4 L 13.7,1.3 c -0.9,-1.7 -3.3,-1.7 -4.2,0 L 0.3,17.5 c -0.9,1.6 0.3,3.6 2.1,3.6 l 12.3,0 c -0.8,-1.3 -1.3,-2.9 -1.3,-4.6 z m -0.8,-0.8 c 0,0.1 -0.1,0.3 -0.2,0.3 l -1.6,0 c -0.1,0 -0.3,-0.1 -0.3,-0.3 l 0,-1.5 c 0,-0.1 0.1,-0.3 0.3,-0.3 l 1.6,0 c 0.1,0 0.2,0.1 0.2,0.3 l 0,1.5 z m 0,-2.9 c 0,0.1 -0.1,0.2 -0.3,0.2 l -1.6,0 c -0.2,0 -0.3,-0.1 -0.3,-0.2 l -0.1,-6 c 0,0 0,-0.1 0.1,-0.1 0,0 0.1,-0.1 0.2,-0.1 l 1.8,0 c 0.1,0 0.1,0 0.2,0.1 0,0 0.1,0.1 0.1,0.1 l -0.1,6 z"
           id="path4237" />
        <circle
           style="fill:none;stroke:#b3b3b3;stroke-width:2;stroke-miterlimit:10"
           class="st1"
           cx="21.700001"
           cy="16.5"
           r="5.3000002"
           id="circle4239" />
      </g>
      <rect
         y="129.07159"
         x="436.56213"
         height="29.294424"
         width="28.536812"
         id="rect10276"
         style="fill:#b3b3b3;fill-opacity:0" />
    </g>
    <g
       id="errors"
       inkscape:label="#g10440"
       style="fill:#b3b3b3">
      <path
         style="display:inline;fill:#b3b3b3"
         inkscape:connector-curvature="0"
         class="st0"
         d="m 499.46718,149.54903 -9.2,-16.3 c -0.9,-1.7 -3.3,-1.7 -4.2,0 l -9.1,16.3 c -0.9,1.6 0.3,3.6 2.1,3.6 l 18.2,0 c 1.9,0 3.1,-2 2.2,-3.6 z m -10.2,-0.8 c 0,0.1 -0.1,0.3 -0.2,0.3 l -1.6,0 c -0.1,0 -0.3,-0.1 -0.3,-0.3 l 0,-1.5 c 0,-0.1 0.1,-0.3 0.3,-0.3 l 1.6,0 c 0.1,0 0.2,0.1 0.2,0.3 l 0,1.5 z m 0,-2.9 c 0,0.1 -0.1,0.2 -0.3,0.2 l -1.6,0 c -0.2,0 -0.3,-0.1 -0.3,-0.2 l -0.1,-6 c 0,0 0,-0.1 0.1,-0.1 0,0 0.1,-0.1 0.2,-0.1 l 1.8,0 c 0.1,0 0.1,0 0.2,0.1 0,0 0.1,0.1 0.1,0.1 l -0.1,6 z"
         id="path4222" />
      <rect
         style="fill:#b3b3b3;fill-opacity:0"
         id="rect10278"
         width="28.536812"
         height="29.294424"
         x="476.56213"
         y="129.07159" />
    </g>
    <g
       id="inspector"
       inkscape:label="#g10444"
       style="fill:#b3b3b3">
      <g
         transform="translate(516.56215,131.44385)"
         id="g4381"
         style="display:inline;fill:#b3b3b3">
        <path
           style="fill:#b3b3b3"
           inkscape:connector-curvature="0"
           class="st0"
           d="M 15.1,6 C 12.4,6 10,8.3 10,11 c 0,1.2 0.4,2.4 1.2,3.3 L 9,15.2 6.7,17.6 c -0.2,0.2 -0.3,0.5 -0.3,0.8 0,0.7 0.6,1.4 1.4,1.4 0.3,0 0.6,-0.1 0.8,-0.3 l 2.4,-2.4 0.9,-2.3 c 1,0.8 2.1,1.2 3.3,1.2 1.3,0 2.6,-0.5 3.6,-1.5 1,-1 1.5,-2.3 1.5,-3.6 C 20.1,8.3 17.8,6 15.1,6 Z m 0,8.1 c -0.8,0 -1.6,-0.3 -2.2,-0.9 C 12.3,12.6 12,11.8 12,11 c 0,-1.7 1.4,-3.1 3.1,-3.1 1.7,0 3.1,1.4 3.1,3.1 0,1.7 -1.4,3.1 -3.1,3.1 z"
           id="path4370" />
        <path
           style="fill:#b3b3b3"
           inkscape:connector-curvature="0"
           class="st0"
           d="M 25.7,0 0.8,0 C 0.4,0 0,0.4 0,0.8 L 0,21.2 C 0,21.6 0.4,22 0.8,22 l 24.9,0 c 0.4,0 0.8,-0.4 0.8,-0.8 l 0,-20.4 C 26.5,0.4 26.1,0 25.7,0 Z m -4.2,1.1 c 0.6,0 1.1,0.5 1.1,1.1 0,0.6 -0.5,1.1 -1.1,1.1 -0.6,0 -1.1,-0.5 -1.1,-1.1 0,-0.6 0.5,-1.1 1.1,-1.1 z m 4.1,19.4 c 0,0.3 -0.2,0.5 -0.5,0.5 L 1.4,21.1 c -0.3,0 -0.5,-0.2 -0.5,-0.5 l 0,-16.2 24.7,0 0,16.1 z M 24.5,3.3 c -0.6,0 -1.1,-0.5 -1.1,-1.1 0,-0.6 0.5,-1.1 1.1,-1.1 0.6,0 1.1,0.5 1.1,1.1 0,0.6 -0.5,1.1 -1.1,1.1 z"
           id="path4372" />
      </g>
      <rect
         y="129.07159"
         x="516.56213"
         height="29.294424"
         width="26.516506"
         id="rect10280"
         style="fill:#b3b3b3;fill-opacity:0" />
    </g>
    <g
       id="dictionary"
       inkscape:label="#g10467"
       style="fill:#b3b3b3">
      <g
         transform="translate(596.56215,132.10395)"
         id="g4116"
         style="display:inline;fill:#b3b3b3">
        <path
           style="fill:#b3b3b3"
           inkscape:connector-curvature="0"
           class="st0"
           d="M 25.7,0 0.8,0 C 0.4,0 0,0.4 0,0.8 L 0,21.2 C 0,21.6 0.4,22 0.8,22 l 24.9,0 c 0.4,0 0.8,-0.4 0.8,-0.8 l 0,-20.4 C 26.5,0.4 26.1,0 25.7,0 Z m -4.2,1.1 c 0.6,0 1.1,0.5 1.1,1.1 0,0.6 -0.5,1.1 -1.1,1.1 -0.6,0 -1.1,-0.5 -1.1,-1.1 0,-0.6 0.5,-1.1 1.1,-1.1 z m 4.1,19.4 c 0,0.3 -0.2,0.5 -0.5,0.5 L 1.4,21.1 c -0.3,0 -0.5,-0.2 -0.5,-0.5 l 0,-16.2 24.7,0 0,16.1 z M 24.5,3.3 c -0.6,0 -1.1,-0.5 -1.1,-1.1 0,-0.6 0.5,-1.1 1.1,-1.1 0.6,0 1.1,0.5 1.1,1.1 0,0.6 -0.5,1.1 -1.1,1.1 z"
           id="path4105" />
        <path
           style="fill:#b3b3b3"
           inkscape:connector-curvature="0"
           class="st1"
           d="m 20.7,9.1 0,0 c -0.3,0 -0.3,-0.2 -0.3,-0.3 l 0,-1.7 c 0,-0.2 -0.1,-0.3 -0.3,-0.3 l -4.8,0 c -1.2,0 -1.6,0.4 -1.7,0.6 l 0,0 0,0 -0.1,0.1 0,0 c -0.1,0.2 -0.2,0.1 -0.3,0 L 13,7.3 12.9,7.2 C 12.8,7 12.4,6.7 11.6,6.7 l -5.1,0 C 6.3,6.7 6.2,6.8 6.2,7 l 0,1.6 C 6.2,9 6,9.1 5.9,9.1 l -0.1,0 C 5.7,9.1 5.5,9.2 5.5,9.5 l 0,7.8 c 0,0.2 0.2,0.3 0.3,0.3 l 4.6,0 c 1.5,0 2.1,0.6 2.3,0.8 l 0.1,0.1 0,0 c 0,0 0.3,0.3 0.6,0 l 0,0 0.1,-0.1 0,0 0,0 0.1,-0.1 c 0,0 0,0 0.1,-0.1 0.2,-0.2 0.9,-0.7 2.1,-0.7 l 4.8,0 c 0.2,0 0.3,-0.2 0.3,-0.3 l 0,-7.8 c 0,-0.3 -0.2,-0.3 -0.2,-0.3 z m -1.1,7 c 0,0.2 -0.1,0.3 -0.3,0.3 l -3.9,0 C 14,16.4 13.5,17 13.5,17 l -0.1,0.1 0,0 0,0 c -0.1,0.2 -0.3,0 -0.3,0 L 13,17 c -0.1,-0.1 -0.6,-0.6 -1.8,-0.6 l -4,0 C 7,16.4 6.9,16.3 6.9,16.1 l 0,-8.4 C 6.9,7.5 7,7.4 7.2,7.4 l 3.1,0 c 2.3,0 2.6,1.3 2.6,1.7 l 0,5.9 c 0,0.4 0.2,0.5 0.3,0.5 l 0.2,0 c 0.1,0 0.3,-0.1 0.3,-0.4 l 0,-6 0,0 c 0,-0.5 0.2,-1.6 1.6,-1.6 l 4.1,0 c 0.2,0 0.3,0.1 0.3,0.3 l 0,8.3 z"
           id="path4107" />
      </g>
      <rect
         style="fill:#b3b3b3;fill-opacity:0"
         id="rect10284"
         width="26.516506"
         height="29.294424"
         x="596.56213"
         y="129.07159" />
    </g>
    <g
       id="start-editing"
       inkscape:label="#g10473"
       style="fill:#b3b3b3">
      <g
         id="g5763"
         style="display:inline;fill:#b3b3b3"
         transform="translate(369.11183,110.08761)">
        <g
           id="g4123"
           transform="translate(267.44556,19.974753)"
           style="fill:#b3b3b3">
          <g
             id="g4125"
             style="fill:#b3b3b3">
            <path
               style="fill:#b3b3b3"
               inkscape:connector-curvature="0"
               class="st0"
               d="m 6.2,13.5 6.2,2.3 C 12.7,15.9 13,15.7 13,15.4 L 12.7,8.8 c 0,-0.1 0,-0.3 -0.1,-0.4 l 0,0 c 0,0 0,0 0,-0.1 l -4.4,-6 -1.6,1.1 4,5.4 C 10.8,9 10.7,9.3 10.5,9.5 L 10.2,9.8 C 9.9,9.9 9.6,9.8 9.5,9.6 l -4,-5.4 -1.4,1 4,5.5 C 8.2,10.9 8.2,11.2 8,11.3 L 7.6,11.6 C 7.4,11.7 7.1,11.7 7,11.5 L 3,6 1.4,7.2 5.7,13 c 0.1,0.2 0.2,0.4 0.5,0.5 z m 1.1,-0.7 4.3,-3.1 c 0.3,-0.2 0.7,0.1 0.7,0.5 l 0.1,3.6 c -0.1,0 -0.1,0 -0.2,0.1 l -1.3,0.9 c 0,0 0,0 0,0 L 7.6,13.7 C 7.2,13.5 7,12.9 7.3,12.8 Z"
               id="path4127" />
            <path
               style="fill:#b3b3b3"
               inkscape:connector-curvature="0"
               class="st0"
               d="M 1.1,6.8 0.6,6.1 C -0.4,4.8 -0.1,3 1.2,2 l 2,-1.5 c 1.3,-0.9 3.1,-0.7 4.1,0.6 l 0.5,0.7 -6.7,5 z"
               id="path4129" />
          </g>
        </g>
        <g
           id="g4131"
           transform="translate(267.44556,19.974753)"
           style="fill:#b3b3b3">
          <polygon
             style="fill:#b3b3b3"
             class="st1"
             points="20.4,25.2 24.4,25.2 24.4,21.2 22.4,21.2 22.4,23.2 20.4,23.2 "
             id="polygon4133" />
          <rect
             style="fill:#b3b3b3"
             x="11.1"
             y="23.200001"
             class="st1"
             width="4.6999998"
             height="2"
             id="rect4135" />
          <polygon
             style="fill:#b3b3b3"
             class="st1"
             points="2.4,25.2 6.4,25.2 6.4,23.2 4.4,23.2 4.4,21.2 2.4,21.2 "
             id="polygon4137" />
          <polygon
             style="fill:#b3b3b3"
             class="st1"
             points="22.4,5.3 22.4,7.3 24.4,7.3 24.4,3.3 20.4,3.3 20.4,5.3 "
             id="polygon4139" />
          <rect
             style="fill:#b3b3b3"
             x="22.4"
             y="11.9"
             class="st1"
             width="2"
             height="4.6999998"
             id="rect4141" />
          <polygon
             style="fill:#b3b3b3"
             class="st1"
             points="2.4,16.6 4.4,16.6 4.4,14.9 2.4,12.2 "
             id="polygon4143" />
          <polygon
             style="fill:#b3b3b3"
             class="st1"
             points="11.1,3.3 12.6,5.3 15.8,5.3 15.8,3.3 "
             id="polygon4145" />
        </g>
      </g>
      <rect
         y="129.07159"
         x="636.30957"
         height="29.294424"
         width="24.748739"
         id="rect10286"
         style="fill:#b3b3b3;fill-opacity:0" />
    </g>
    <g
       id="start-editing-hilited"
       inkscape:label="#g10450"
       style="fill:#b3b3b3">
      <g
         style="display:inline;fill:#b3b3b3;image-rendering:optimizeQuality"
         transform="translate(558.85739,133.50714)"
         id="g4204">
        <g
           id="g4171"
           style="fill:#b3b3b3">
          <g
             id="g4173"
             style="fill:#b3b3b3">
            <path
               style="fill:#b3b3b3"
               inkscape:connector-curvature="0"
               class="st0"
               d="m 6.7,10.8 -1.8,4.8 c -0.1,0.3 0,0.5 0.3,0.4 l 5.2,-0.2 c 0.1,0 0.2,0 0.3,-0.1 l 0,0 c 0,0 0,0 0,0 l 4.7,-3.5 -0.8,-1.1 -4.3,3.1 C 10.1,14.3 9.9,14.3 9.8,14.1 L 9.6,13.8 C 9.5,13.6 9.5,13.4 9.7,13.3 L 14,10.2 13.2,9.1 8.9,12.3 C 8.7,12.4 8.5,12.4 8.4,12.2 L 8.2,11.9 C 8,11.7 8,11.5 8.2,11.4 L 12.5,8.2 11.6,7 7,10.4 c -0.1,0 -0.3,0.2 -0.3,0.4 z m 0.5,0.9 2.5,3.3 c 0.1,0.2 -0.1,0.5 -0.4,0.6 l -2.8,0.1 c 0,0 0,-0.1 0,-0.1 l -0.7,-1 c 0,0 0,0 0,0 L 6.7,12 c 0,-0.4 0.4,-0.5 0.5,-0.3 z"
               id="path4175" />
            <path
               style="fill:#b3b3b3"
               inkscape:connector-curvature="0"
               class="st0"
               d="m 12,6.8 0.5,-0.4 c 1,-0.7 2.4,-0.5 3.2,0.5 l 1.1,1.6 c 0.7,1 0.5,2.4 -0.5,3.2 L 15.8,12 12,6.8 Z"
               id="path4177" />
          </g>
        </g>
        <g
           id="g4179"
           style="fill:#b3b3b3">
          <polygon
             style="fill:#b3b3b3"
             class="st1"
             points="20.1,20 18.1,20 18.1,22 22.1,22 22.1,18 20.1,18 "
             id="polygon4181" />
          <polygon
             style="fill:#b3b3b3"
             class="st1"
             points="8.8,22 13.1,22 13.1,22 13.4,22 13.4,20 8.8,20 8.8,20 8.8,22 "
             id="polygon4183" />
          <polygon
             style="fill:#b3b3b3"
             class="st1"
             points="18.1,2 20.1,2 20.1,4 20.1,4 22.1,4 22.1,4 22.1,0 22.1,0 18.1,0 18.1,0 18.1,2 "
             id="polygon4185" />
          <polygon
             style="fill:#b3b3b3"
             class="st1"
             points="20.1,13.3 22.1,13.3 22.1,13.2 22.1,8.7 22.1,8.7 20.1,8.7 20.1,8.7 20.1,12.3 "
             id="polygon4187" />
          <polygon
             style="fill:#b3b3b3"
             class="st1"
             points="0.1,18 0.1,22 0.1,22 4.1,22 4.1,22 4.1,20 4.1,20 2.1,20 2.1,18 2.1,18 0.1,18 "
             id="polygon4189" />
          <polygon
             style="fill:#b3b3b3"
             class="st1"
             points="2,2 4,2 4,0 0,0 0,4 2,4 "
             id="polygon4191" />
          <rect
             style="fill:#b3b3b3"
             x="8.6999998"
             y="0"
             class="st1"
             width="4.6999998"
             height="2"
             id="rect4193" />
          <rect
             style="fill:#b3b3b3"
             x="0"
             y="8.6999998"
             class="st1"
             width="2"
             height="4.6999998"
             id="rect4195" />
        </g>
      </g>
      <rect
         style="fill:#b3b3b3;fill-opacity:0"
         id="rect10288"
         width="24.748739"
         height="29.294424"
         x="556.30957"
         y="129.07159" />
    </g>
  </g>
</svg>
