<?xml version="1.0" encoding="utf-8"?>
<!-- Generator: Adobe Illustrator 19.1.0, SVG Export Plug-In . SVG Version: 6.00 Build 0)  -->
<svg version="1.1" id="Layer_1" xmlns="http://www.w3.org/2000/svg" xmlns:xlink="http://www.w3.org/1999/xlink" x="0px" y="0px"
	 viewBox="0 0 26.5 22" style="enable-background:new 0 0 26.5 22;" xml:space="preserve">
<style type="text/css">
	.st0{fill:#131111;}
</style>
<path class="st0" d="M15.1,6c-2.7,0-5.1,2.3-5.1,5c0,1.2,0.4,2.4,1.2,3.3L9,15.2l-2.3,2.4c-0.2,0.2-0.3,0.5-0.3,0.8
	c0,0.7,0.6,1.4,1.4,1.4c0.3,0,0.6-0.1,0.8-0.3l2.4-2.4l0.9-2.3c1,0.8,2.1,1.2,3.3,1.2c1.3,0,2.6-0.5,3.6-1.5c1-1,1.5-2.3,1.5-3.6
	C20.1,8.3,17.8,6,15.1,6z M15.1,14.1c-0.8,0-1.6-0.3-2.2-0.9C12.3,12.6,12,11.8,12,11c0-1.7,1.4-3.1,3.1-3.1c1.7,0,3.1,1.4,3.1,3.1
	C18.2,12.7,16.8,14.1,15.1,14.1z"/>
<path class="st0" d="M25.7,0H0.8C0.4,0,0,0.4,0,0.8v20.4C0,21.6,0.4,22,0.8,22h24.9c0.4,0,0.8-0.4,0.8-0.8V0.8
	C26.5,0.4,26.1,0,25.7,0z M21.5,1.1c0.6,0,1.1,0.5,1.1,1.1s-0.5,1.1-1.1,1.1s-1.1-0.5-1.1-1.1S20.9,1.1,21.5,1.1z M25.6,20.5
	c0,0.3-0.2,0.5-0.5,0.5L1.4,21.1c-0.3,0-0.5-0.2-0.5-0.5V4.4h24.7V20.5z M24.5,3.3c-0.6,0-1.1-0.5-1.1-1.1s0.5-1.1,1.1-1.1
	s1.1,0.5,1.1,1.1S25.1,3.3,24.5,3.3z"/>
</svg>
