<?xml version="1.0" encoding="utf-8"?>
<!-- Generator: Adobe Illustrator 19.1.0, SVG Export Plug-In . SVG Version: 6.00 Build 0)  -->
<svg version="1.1" id="Layer_1" xmlns="http://www.w3.org/2000/svg" xmlns:xlink="http://www.w3.org/1999/xlink" x="0px" y="0px"
	 viewBox="0 0 26.5 22" style="enable-background:new 0 0 26.5 22;" xml:space="preserve">
<style type="text/css">
	.st0{fill:#131111;}
</style>
<path class="st0" d="M25.7,0H0.8C0.4,0,0,0.4,0,0.8v20.4C0,21.6,0.4,22,0.8,22h24.9c0.4,0,0.8-0.4,0.8-0.8V0.8
	C26.5,0.4,26.1,0,25.7,0z M21.5,1.1c0.6,0,1.1,0.5,1.1,1.1s-0.5,1.1-1.1,1.1s-1.1-0.5-1.1-1.1S20.9,1.1,21.5,1.1z M25.6,20.5
	c0,0.3-0.2,0.5-0.5,0.5L1.4,21.1c-0.3,0-0.5-0.2-0.5-0.5V4.4h24.7V20.5z M24.5,3.3c-0.6,0-1.1-0.5-1.1-1.1s0.5-1.1,1.1-1.1
	s1.1,0.5,1.1,1.1S25.1,3.3,24.5,3.3z"/>
<path class="st0" d="M26.1,5.9H0.2C0.1,5.9,0,6,0,6.1v15.1c0,0.1,0.1,0.2,0.2,0.2H24c0.1,0,2.3-0.1,2.3-0.2V6.1
	C26.3,6,26.2,5.9,26.1,5.9z M3.1,14.6l2.1-2.3L3.1,10L4,9l3,3.3l0,0l0,0l-3,3.3L3.1,14.6z M11.7,15.6H7v-1h4.7V15.6z"/>
</svg>
