<?xml version="1.0" encoding="utf-8"?>
<!-- Generator: Adobe Illustrator 19.1.0, SVG Export Plug-In . SVG Version: 6.00 Build 0)  -->
<svg version="1.1" id="Layer_1" xmlns="http://www.w3.org/2000/svg" xmlns:xlink="http://www.w3.org/1999/xlink" x="0px" y="0px"
	 viewBox="0 0 26 16.6" style="enable-background:new 0 0 26 16.6;" xml:space="preserve">
<style type="text/css">
	.st0{fill:#231F20;}
</style>
<path class="st0" d="M2.1,16.6h21.8c1.2,0,2.1-0.9,2.1-2.1V8.3V2.1C26,0.9,25.1,0,23.9,0L2.1,0C0.9,0,0,0.9,0,2.1l0,6.2l0,6.2
	C0,15.7,0.9,16.6,2.1,16.6z M3.2,3L4,2.2l9,7.7l8.9-7.7L22.8,3l-6.1,5.3l6.1,5.3l-0.8,0.8l-6.2-5.3L13,11.5l-2.8-2.4L4,14.4
	l-0.8-0.8l6.2-5.3L3.2,3z"/>
</svg>
