<?xml version="1.0" encoding="utf-8"?>
<!-- Generator: Adobe Illustrator 19.1.0, SVG Export Plug-In . SVG Version: 6.00 Build 0)  -->
<svg version="1.1" id="Layer_1" xmlns="http://www.w3.org/2000/svg" xmlns:xlink="http://www.w3.org/1999/xlink" x="0px" y="0px"
	 viewBox="0 0 30.5 20.6" style="enable-background:new 0 0 30.5 20.6;" xml:space="preserve">
<style type="text/css">
	.st0{fill:#231F20;}
	.st1{fill:#010202;}
	.st2{fill:none;stroke:#010202;stroke-width:2;stroke-miterlimit:10;}
</style>
<path class="st0" d="M16,14.3c0-1.5,0.4-2.9,1.1-4.1l-1.4-1.2L13,11.5l-2.8-2.4L4,14.4l-0.8-0.8l6.2-5.3L3.2,3L4,2.2l9,7.7l8.9-7.7
	L22.8,3l-6.1,5.3l1.1,1c1.5-1.9,3.8-3.1,6.4-3.1c0.6,0,1.2,0.1,1.8,0.2V2.1C26,0.9,25.1,0,23.9,0H2.1C0.9,0,0,0.9,0,2.1v6.2v6.2
	c0,1.1,0.9,2.1,2.1,2.1h14.3C16.1,15.9,16,15.1,16,14.3z"/>
<rect x="19.2" y="13.4" transform="matrix(0.7071 -0.7071 0.7071 0.7071 -3.0679 21.2899)" class="st1" width="9.8" height="1.9"/>
<circle class="st2" cx="24.2" cy="14.3" r="5.3"/>
</svg>
