<?xml version="1.0" encoding="utf-8"?>
<!-- Generator: Adobe Illustrator 19.1.0, SVG Export Plug-In . SVG Version: 6.00 Build 0)  -->
<svg version="1.1" id="Layer_1" xmlns="http://www.w3.org/2000/svg" xmlns:xlink="http://www.w3.org/1999/xlink" x="0px" y="0px"
	 viewBox="0 0 22.9 22" style="enable-background:new 0 0 22.9 22;" xml:space="preserve">
<style type="text/css">
	.st0{fill:#010202;}
</style>
<g>
	<path class="st0" d="M1.1,22h3.7c0.6,0,1.1-0.5,1.1-1.1V1.1C5.8,0.5,5.3,0,4.7,0H1.1C0.5,0,0,0.5,0,1.1v19.8C0,21.5,0.5,22,1.1,22z
		 M1,3.1h3.8c0.3,0,0.5,0.2,0.5,0.5S5.1,4,4.8,4H1C0.8,4,0.6,3.8,0.6,3.6S0.8,3.1,1,3.1z M1,5.1h3.8c0.3,0,0.5,0.2,0.5,0.5
		S5.1,6,4.8,6H1C0.8,6,0.6,5.8,0.6,5.5S0.8,5.1,1,5.1z M1,7h3.8c0.3,0,0.5,0.2,0.5,0.5c0,0.3-0.2,0.5-0.5,0.5H1
		c-0.3,0-0.5-0.2-0.5-0.5C0.6,7.2,0.8,7,1,7z"/>
	<path class="st0" d="M8.2,22h3.7c0.6,0,1.1-0.5,1.1-1.1V1.1c0-0.6-0.5-1.1-1.1-1.1H8.2C7.6,0,7.1,0.5,7.1,1.1v19.8
		C7.1,21.5,7.6,22,8.2,22z M8.1,3.1h3.8c0.3,0,0.5,0.2,0.5,0.5S12.1,4,11.9,4H8.1C7.8,4,7.6,3.8,7.6,3.6S7.8,3.1,8.1,3.1z M8.1,5.1
		h3.8c0.3,0,0.5,0.2,0.5,0.5S12.1,6,11.9,6H8.1C7.8,6,7.6,5.8,7.6,5.5S7.8,5.1,8.1,5.1z M8.1,7h3.8c0.3,0,0.5,0.2,0.5,0.5
		c0,0.3-0.2,0.5-0.5,0.5H8.1c-0.3,0-0.5-0.2-0.5-0.5C7.6,7.2,7.8,7,8.1,7z"/>
	<path class="st0" d="M17.7,21.3c0.1,0.5,0.7,0.9,1.2,0.7l3.2-0.8c0.5-0.1,0.9-0.7,0.7-1.2L19,3.6c-0.1-0.5-0.7-0.9-1.2-0.7
		l-3.2,0.8c-0.5,0.1-0.9,0.7-0.7,1.2L17.7,21.3z M19.8,9.3c0.1,0.2-0.1,0.5-0.3,0.5l-3.3,0.8c-0.2,0.1-0.5-0.1-0.5-0.3
		c-0.1-0.2,0.1-0.5,0.3-0.5L19.3,9C19.5,9,19.7,9.1,19.8,9.3z M19.4,7.7c0.1,0.2-0.1,0.5-0.3,0.5L15.8,9c-0.2,0.1-0.5-0.1-0.5-0.3
		c-0.1-0.2,0.1-0.5,0.3-0.5l3.3-0.8C19.1,7.3,19.3,7.4,19.4,7.7z M15.2,6.4l3.3-0.8c0.2-0.1,0.5,0.1,0.5,0.3
		c0.1,0.2-0.1,0.5-0.3,0.5l-3.3,0.8c-0.2,0.1-0.5-0.1-0.5-0.3C14.8,6.7,14.9,6.4,15.2,6.4z"/>
</g>
</svg>
