<?xml version="1.0" encoding="utf-8"?>
<!-- Generator: Adobe Illustrator 19.1.0, SVG Export Plug-In . SVG Version: 6.00 Build 0)  -->
<svg version="1.1" id="Layer_1" xmlns="http://www.w3.org/2000/svg" xmlns:xlink="http://www.w3.org/1999/xlink" x="0px" y="0px"
	 viewBox="0 0 30.1 27.3" style="enable-background:new 0 0 30.1 27.3;" xml:space="preserve">
<style type="text/css">
	.st0{fill:#010202;}
	.st1{fill:none;stroke:#010202;stroke-width:2;stroke-miterlimit:10;}
</style>
<path class="st0" d="M12.5,11.4l-5.2,11l-1.6-4l-4.4,4L0,21l4.5-3.9l-3.7-2L12.5,11.4"/>
<polygon class="st0" points="15.6,8.7 12.5,15.1 17.9,15.1 17.9,5.3 8.1,5.3 8.1,11.1 "/>
<g>
	<polygon class="st0" points="4.9,2.1 4.9,0.1 0.9,0.1 0.9,4.1 2.9,4.1 2.9,2.1 	"/>
	<polygon class="st0" points="20.8,2 20.8,4 22.8,4 22.8,0 18.8,0 18.8,2 	"/>
	<rect x="20.8" y="7" class="st0" width="2" height="4.7"/>
	<rect x="9.5" y="0" class="st0" width="4.7" height="2"/>
	<polygon class="st0" points="2.9,8.8 0.9,8.8 0.9,13.1 2.9,12.5 	"/>
	<polygon class="st0" points="10.6,20.1 9.6,22.1 14.2,22.1 14.2,20.1 	"/>
</g>
<path class="st0" d="M12.5,11.4l-5.2,11l-1.6-4l-4.4,4L0,21l4.5-3.9l-3.7-2L12.5,11.4"/>
<polygon class="st0" points="15.6,8.7 12.5,15.1 17.9,15.1 17.9,5.3 8.1,5.3 8.1,11.1 "/>
<g>
	<polygon class="st0" points="4.9,2.1 4.9,0.1 0.9,0.1 0.9,4.1 2.9,4.1 2.9,2.1 	"/>
	<polygon class="st0" points="20.8,2 20.8,4 22.8,4 22.8,0 18.8,0 18.8,2 	"/>
	<rect x="20.8" y="7" class="st0" width="2" height="4.7"/>
	<rect x="9.5" y="0" class="st0" width="4.7" height="2"/>
	<polygon class="st0" points="2.9,8.8 0.9,8.8 0.9,13.1 2.9,12.5 	"/>
	<polygon class="st0" points="10.6,20.1 9.6,22.1 14.2,22.1 14.2,20.1 	"/>
</g>
<rect x="18.9" y="20.1" transform="matrix(0.7071 -0.7071 0.7071 0.7071 -7.8935 23.0133)" class="st0" width="9.8" height="1.9"/>
<circle class="st1" cx="23.8" cy="21" r="5.3"/>
</svg>
